<svg width="207" height="68" xmlns="http://www.w3.org/2000/svg"><g fill="#FFF"><path d="M24.73 58.054c-2.224-1.333-.71-3.021-.71-3.021s2.828.3 5.431-4.422c-.76-.122-1.53-.186-2.3-.193-1.127 1.869-3.818 4.229-8.446 5.55-.934.268-.822.554-.822.554a17.573 17.573 0 005.376 3.887c1.208.623 1.869 2.69 1.869 2.69a2.075 2.075 0 011.657.113 7.294 7.294 0 00-.747 2.043 7.72 7.72 0 004.267 2.4s.71-2.84-.623-4.8a15.142 15.142 0 00-4.983-4.8m25.363-2.245a2.74 2.74 0 00-.816.767.8.8 0 01-1.383.1 7.648 7.648 0 01-1.246-1.838l-3.469 1.993s1.869 2.093 4.03 1.869c0 0 .972.4 1.532.66s1.377-.511 1.937-.966a2.81 2.81 0 011.321-.691 10.2 10.2 0 01-.953-2.323 3.736 3.736 0 01-.978.41m.829-3.101a8.514 8.514 0 002.928-1.545 19.874 19.874 0 00-1.4-1.825 20.585 20.585 0 01-5.5.8 21.8 21.8 0 013.974 2.572M38.931 34.24l-2.884.5-.492-2.808-2.7.473.5 2.809-2.884.51.473 2.692 2.884-.5 1.127 6.385 2.691-.473-1.127-6.385 2.89-.511z"/><path d="M59.05 4.342l-.3.287c-.249-.174-5.238-3.737-7.587-4.491-2.349-.754-3 1.78-3.42 2.97-.42 1.19-2.28 6.709-2.28 6.709s-1.2-.554-1.769-.835c-.569-.281-2.492-.841-3.526 2.548a39.744 39.744 0 01-1.246 3.849c-.529 1.4-1.819.816-2.865 0a10.714 10.714 0 00-5.375-2.236c4.13 1.495 2.909 3 5.924 4.36 3.015 1.36 4.024-1.62 4.261-2.336.237-.716.847-3.42 3.183-2.267s3.607.168 3.943-.623c.293-.7 1.495-4.018 1.838-4.983a.224.224 0 01.324-.112l3.55 2.174-.424.4c-3.114 2.928-6.852 6.434-9.586 8.932a5.381 5.381 0 00-3.015.03 2.56 2.56 0 00.623 1.62c.087.106.174.2.262.293-.473.424-.847.754-1.1.972-.253.218-.517.436-.8.66-.069.062-.218.237-.274.3a4.36 4.36 0 00-1.084 2.49 2.074 2.074 0 011.246-.622 6.03 6.03 0 00-1.445 2.49c-.33 1.365-1.246 1.7-1.663 1.508 0 0 .816.112.747-2.417a5.438 5.438 0 01.28-2.13c-2.155 1.657-3.974 3-4.591 3.438-1.071-2.174-2.442-4.6-3.825-5.575a7.874 7.874 0 001.358-3.575h-.442a5.606 5.606 0 00-1.657-2.08 2.909 2.909 0 00-3.233-.168c0-.262.268-4.76-2.124-4.76a2.02 2.02 0 00-1.688 1.016 3.307 3.307 0 00-3.046 2.46c-.237.872-.623 1.14-1.14 1.046-.517-.094-.735-.573-1.028-1.29 0 0-.779 3.115 1.588 3.969a2.782 2.782 0 003.737-1.426c.9-1.532 2.8-1.426 2.971-.392a2.946 2.946 0 00-.7 1.912c.011.6.212 1.182.573 1.663a.062.062 0 000 .044 1.83 1.83 0 01.336 1.663.473.473 0 00-.106.187 5.451 5.451 0 00-1.651 3.775.971.971 0 00.355.193c.044 1.383-.075 4.142-.131 5.232a.673.673 0 00.4.623c.623.28 1.869.822 2.94 1.333.305 1.246.548 2.69.7 3.737h-.093a13.908 13.908 0 00-6.123.392 10.271 10.271 0 00-4.535 3.04 9.508 9.508 0 00-7.811 1.756c-3.469 2.4-3.65 5.91-3.706 8.185-.044 1.962-1.688 6.4-4.8 5.506 0 0 1.557 2.26 6.067.274 2.809-1.246 5.513-4.734 5.575-9.78.044-3.911 2.4-4.89 3.818-4.8l.1-.074a10.074 10.074 0 00-.8 7.879 45.973 45.973 0 008.1-1.246 27.067 27.067 0 01-6.279 2.13 3.219 3.219 0 01-.79 2.132c-.785.673-2.579.224-4.36 2.242 0 0-1.246 5.942-3.806 7.73a4.017 4.017 0 001.682 2.69 6.055 6.055 0 00-.9 3.028h5.226s-.673-3.027-2.579-4.48c0 0 .112-6.5 8.72-8.968a13.878 13.878 0 006.914-4.7h.835c1.184.037 2.629.174 2.629.174 1.185.095 2.354.333 3.482.71a14.2 14.2 0 0010.234-.112c.628-.261 1.27-.484 1.925-.667a5.992 5.992 0 01-3.114-.9c2.049.293 6.191.38 8.72-.73 1.389-.622 2.971-1.276 2.971-1.276s.673.174.716.5c.448 3.177-.623 4.167-.623 4.167a1.7 1.7 0 00-.218.193c-1.482 1.1-1.8 1.289-1.8 1.289-.28 1.5-.268 3.04.037 4.535.087.623.162 1.084.162 1.084 3.793-2.884 3.2-4.167 3.42-4.541.22-.374 1.526-2.236 1.283-2.81a3.058 3.058 0 01-.118-1.656c1.582-6.94-.093-6.926-.093-6.926a14.327 14.327 0 00-4.566.237 7.618 7.618 0 00-.941-4.236c-.623-.978-.623-1.426-.623-4.092a15.369 15.369 0 00-1.464-5.662 2.292 2.292 0 01-2.616-1.364c1.1 1.52 2.971.473 3.768.517a4.26 4.26 0 012.71 1.314c.517.71 2.429-1.065 3.2-1.925.771-.86-.8-1.744-.8-1.744-2.56-2.492-6.26-5.456-6.26-5.456a13.41 13.41 0 00-3.737-1.078C51.058 13.857 59.666 4.98 59.666 4.98c.679-.548 2.242-.585 2.66-3.24-2.659.365-2.715 1.929-3.276 2.6zM26.33 30.186c.119-1.005.144-2.018.075-3.027a8.263 8.263 0 00-1.246-.716c.644.189 1.31.296 1.981.318a21.8 21.8 0 01-.81 3.425zM37 48.38a11.43 11.43 0 01-8.49-9.58l-1.352-7.693s1.981-.361 6.6-1.171l6.6-1.16s.772 4.36 1.358 7.7A11.423 11.423 0 0137 48.38zm6.933-27.5s.255-.835-.448-1.078c-.249-.087-.511-.15-.76-.212a2.84 2.84 0 01-1.159-.473c.506.008 1.01.06 1.507.156a3 3 0 011.5.666 1.451 1.451 0 01-.642.94h.002zM75.302 62.9v1.046h1.954v1.022H75.3v1.962h-1.244v-5.077h3.332v1.04zm8.296 1.443c.006.376-.064.75-.206 1.1-.13.32-.325.611-.573.853a2.652 2.652 0 01-.878.548 3.208 3.208 0 01-2.192 0 2.561 2.561 0 01-.872-.548 2.492 2.492 0 01-.579-.853 3.026 3.026 0 010-2.193 2.483 2.483 0 011.451-1.358 3.31 3.31 0 012.192 0c.325.116.623.296.878.529.247.233.442.515.573.828.14.347.21.719.206 1.094zm-1.308 0a1.633 1.633 0 00-.106-.623 1.325 1.325 0 00-.754-.81 1.388 1.388 0 00-.586-.118 1.364 1.364 0 00-.585.118 1.42 1.42 0 00-.461.318c-.13.142-.23.31-.293.492a1.871 1.871 0 000 1.246c.07.183.171.352.3.5.127.138.282.249.455.324a1.516 1.516 0 001.171 0 1.49 1.49 0 00.455-.324c.133-.145.235-.315.3-.5.072-.2.108-.411.104-.623zm5.145 2.574l-1.1-2.006h-.417v2.006h-1.19v-5.064h1.925c.24 0 .48.025.716.075.222.045.433.132.623.255.183.117.335.277.442.467.113.226.169.476.162.729.01.312-.088.619-.28.866a1.476 1.476 0 01-.766.5l1.321 2.168-1.436.004zm-.05-3.507a.523.523 0 00-.075-.293.5.5 0 00-.193-.168.748.748 0 00-.268-.081 1.419 1.419 0 00-.28 0h-.623v1.177h.567c.103.009.208.009.311 0a.852.852 0 00.287-.087.554.554 0 00.212-.187.542.542 0 00.062-.361zm4.678-.51v4.018h-1.246V62.9h-1.426v-1.047h4.08v1.04zm2.236 4.017v-5.064h3.426v1.028h-2.226v.959h2.105v.978h-2.105v1.046h2.354v1.046zm7.381-3.744a1.1 1.1 0 00-.4-.318 1.16 1.16 0 00-.492-.118h-.249a.7.7 0 00-.224.087.66.66 0 00-.168.156.417.417 0 00-.068.243.392.392 0 00.056.218.52.52 0 00.156.15c.08.046.163.086.249.118l.318.112.536.187c.182.067.354.16.511.274.152.116.28.26.38.424.103.19.154.406.149.623.005.26-.05.518-.162.754-.1.205-.248.384-.43.523-.187.14-.398.243-.623.305a2.563 2.563 0 01-.723.1 3.07 3.07 0 01-1.053-.187 2.243 2.243 0 01-.841-.536l.8-.816c.133.16.298.29.486.38a1.3 1.3 0 00.623.156 1.2 1.2 0 00.262-.031.624.624 0 00.224-.093.45.45 0 00.156-.168.561.561 0 00.056-.262.4.4 0 00-.068-.243.855.855 0 00-.206-.181 1.485 1.485 0 00-.33-.15l-.442-.143a5.114 5.114 0 01-.473-.187 1.725 1.725 0 01-.417-.274 1.29 1.29 0 01-.4-.99 1.4 1.4 0 01.174-.723 1.47 1.47 0 01.449-.492 1.8 1.8 0 01.623-.28 2.7 2.7 0 01.7-.093c.3.003.597.058.878.162.29.096.555.253.779.46l-.796.853zm3.482 3.744v-5.064h1.246v5.058zm5.843 0l-2.037-3.308v3.308h-1.183v-5.064h1.389l2.031 3.3-.031-3.3h1.184v5.058zm5.562-4.017v1.046h1.956v1.022h-1.956v1.962h-1.208v-5.077h3.332v1.04zm3.196 4.017v-5.064h1.246v5.058zm7.35-2.541c.011.396-.074.79-.249 1.146a2.3 2.3 0 01-.623.79c-.27.21-.58.364-.909.456-.334.1-.68.15-1.028.15h-1.869v-5.065h1.83c.355 0 .708.043 1.053.125.334.076.65.217.928.417.28.2.506.464.66.772.165.38.235.794.206 1.208h.001zm-1.246 0a1.582 1.582 0 00-.143-.71 1.115 1.115 0 00-.367-.455 1.409 1.409 0 00-.53-.237 2.5 2.5 0 00-.623-.075h-.623v2.959h.579c.21 0 .419-.026.623-.075.194-.046.376-.13.536-.25.16-.116.287-.273.367-.454.105-.219.159-.458.156-.7l.025-.003zm2.379 2.541v-5.064h3.4v1.028h-2.217v.959h2.1v.978h-2.1v1.046h2.348v1.046zm7.973 1.04v-7.138h.934v7.138zm8.297-4.784a1.178 1.178 0 00-.411-.318 1.116 1.116 0 00-.486-.118h-.249a.706.706 0 00-.224.087.5.5 0 00-.168.156.417.417 0 00-.069.243.393.393 0 00.056.218.51.51 0 00.156.15c.079.047.162.087.249.118l.318.112.536.187c.18.066.348.159.5.274.153.114.283.259.38.424.103.19.155.405.15.623.007.26-.046.518-.156.754a1.558 1.558 0 01-.436.523 1.761 1.761 0 01-.623.305 2.49 2.49 0 01-.716.1c-.36 0-.716-.063-1.053-.187a2.242 2.242 0 01-.841-.536l.8-.816c.135.16.303.29.492.38a1.284 1.284 0 00.884.125.624.624 0 00.224-.093c.066-.042.12-.1.156-.168a.561.561 0 00.056-.262.443.443 0 00-.069-.243.856.856 0 00-.206-.181 1.486 1.486 0 00-.33-.15l-.448-.142a5.884 5.884 0 01-.473-.187c-.15-.07-.29-.162-.411-.274a1.247 1.247 0 01-.293-.411 1.334 1.334 0 01-.112-.58c-.007-.25.05-.5.168-.722.114-.195.27-.363.455-.492.187-.134.399-.229.623-.28a2.7 2.7 0 01.7-.093c.3.003.597.058.878.162.289.097.554.254.779.46l-.786.852zm4.204-.273v4.018h-1.246V62.9h-1.426v-1.047h4.074v1.04zm4.972 4.017l-1.1-2.006h-.41v2.006h-1.2v-5.064h1.931c.239 0 .477.024.71.075.221.047.432.133.623.255.182.117.331.277.436.467.118.224.176.475.168.729.01.312-.088.619-.28.866a1.5 1.5 0 01-.772.5l1.321 2.168-1.427.004zm-.05-3.507a.525.525 0 00-.075-.293.554.554 0 00-.193-.168.749.749 0 00-.268-.081 1.538 1.538 0 00-.286 0h-.623v1.177h.579c.104.009.208.009.312 0a.852.852 0 00.286-.087.555.555 0 00.212-.187.624.624 0 00.056-.361zm7.561.933c.006.376-.064.75-.206 1.1-.13.32-.325.611-.573.853a2.59 2.59 0 01-.878.548 3.208 3.208 0 01-2.193 0 2.559 2.559 0 01-.872-.548 2.491 2.491 0 01-.573-.853 2.946 2.946 0 010-2.193 2.437 2.437 0 011.445-1.357 3.3 3.3 0 012.193 0c.325.115.624.295.878.529.247.233.442.515.573.828.141.349.211.723.206 1.1v-.007zm-1.3 0a1.636 1.636 0 00-.112-.623 1.433 1.433 0 00-.293-.492 1.352 1.352 0 00-.461-.318 1.388 1.388 0 00-.585-.118 1.365 1.365 0 00-.586.118 1.488 1.488 0 00-.461.318c-.13.142-.23.31-.293.492a1.869 1.869 0 000 1.246c.07.183.171.352.3.5.129.137.283.247.455.324a1.506 1.506 0 001.171 0 1.408 1.408 0 00.755-.824c.075-.2.113-.41.112-.623h-.002zm5.648 2.574l-2.037-3.308v3.308h-1.183v-5.064h1.42l2.024 3.3v-3.3h1.19v5.058zm6.385.006a4.542 4.542 0 01-1.078.118 3.257 3.257 0 01-1.121-.187 2.492 2.492 0 01-1.451-1.383 2.807 2.807 0 01-.206-1.09 2.84 2.84 0 01.206-1.1c.135-.318.334-.605.586-.841a2.58 2.58 0 01.872-.53c.345-.126.71-.19 1.077-.186a3.4 3.4 0 011.115.18c.31.104.594.272.835.493l-.772.878a1.326 1.326 0 00-.469-.343 1.539 1.539 0 00-.667-.137 1.522 1.522 0 00-.592.118c-.18.076-.34.188-.474.33-.134.145-.24.315-.311.5-.075.199-.113.41-.112.623 0 .212.037.422.106.623.06.185.16.356.293.5.137.142.303.255.486.33.21.08.435.12.66.118.134 0 .268-.012.4-.037.124-.02.245-.053.361-.1v-.922h-.965v-.984h2.087v2.672a3.736 3.736 0 01-.866.357zm3.793-.006v-5.064h1.246v5.058zm5.842 0l-2.037-3.308.031 3.308h-1.183v-5.064h1.389l2.031 3.3v-3.3h1.184v5.058zm5.563-4.017v1.046h1.956v1.022h-1.956v1.962h-1.208v-5.077h3.326v1.04zm6.055 4.017l-.392-1h-1.956l-.374 1h-1.327l2.118-5.058h1.19l2.1 5.058h-1.359zm-1.358-3.706l-.623 1.732h1.246l-.623-1.732zm3.5 3.706v-5.064h1.246v5.058zm4.716-4.017v4.018h-1.246V62.9h-1.414v-1.047h4.08v1.04zm5.438 4.017v-2.118h-1.975v2.118h-1.246v-5.064h1.246v1.912h1.975v-1.912h1.249v5.058zM76.373 19.19a10.359 10.359 0 01-3.033-7.592 10.066 10.066 0 013.033-7.506 10.328 10.328 0 017.475-2.965 14.37 14.37 0 012.317.206c.87.147 1.73.355 2.572.623.827.242 1.583.68 2.205 1.277.556.511.874 1.231.878 1.987v2.766h-3.428v-1.6a1.432 1.432 0 00-.779-1.246 4.69 4.69 0 00-1.707-.673 10.759 10.759 0 00-1.869-.168 6.584 6.584 0 00-4.915 1.95 7.045 7.045 0 00-1.912 5.17 7.724 7.724 0 001.981 5.537 6.665 6.665 0 005.039 2.087 10.95 10.95 0 001.725-.143 5.383 5.383 0 001.819-.623c.509-.214.854-.696.891-1.246v-1.612h3.451v2.828a2.579 2.579 0 01-.841 1.869 5.4 5.4 0 01-2.161 1.246 16.97 16.97 0 01-2.6.654c-.823.14-1.657.214-2.492.218a10.334 10.334 0 01-7.649-3.043zM93.988 4.218V1.483h5.924V8.59l-.087 1.246h.056a5.793 5.793 0 015.058-2.934c3.421 0 5.13 1.858 5.126 5.575v6.7h2.137v2.74h-5.787v-8.72a4.062 4.062 0 00-.5-2.23 2.006 2.006 0 00-1.8-.765 3.737 3.737 0 00-3.046 1.42 5.419 5.419 0 00-1.159 3.519v4h2.105v2.74h-7.892v-2.74h2.137V4.186l-2.272.032zm19.346 10.351a7.643 7.643 0 012.068-5.544 7.139 7.139 0 015.369-2.136 6.029 6.029 0 014.8 1.968 7.312 7.312 0 011.732 4.983l-.087 1.246h-10.151a4.2 4.2 0 001.408 2.984 4.466 4.466 0 002.99 1.046 6.852 6.852 0 004.167-1.49l.087-.055 1.42 2.579a9.592 9.592 0 01-.735.586 9.413 9.413 0 01-2.012.928 9.243 9.243 0 01-3.183.567 7.6 7.6 0 01-5.706-2.236 7.518 7.518 0 01-2.167-5.426zm3.818-1.644h6.385a3.351 3.351 0 00-.835-2.317 2.628 2.628 0 00-2.012-.872 3.338 3.338 0 00-2.33.872 3.911 3.911 0 00-1.207 2.317h-.001zm11.288-2.946V7.238h7.045v2.74h-1.632l2.529 7.233c.075.237.143.486.206.754.056.205.1.413.131.623v.237h.087c.05-.55.168-1.092.349-1.613l2.554-7.232h-1.657V7.238h7.039v2.74h-1.761l-4.479 11.923h-4.2l-4.466-11.922h-1.745zm17.562 7.805a3.737 3.737 0 01.654-2.2 4.472 4.472 0 011.554-1.454 8.4 8.4 0 012.136-.8 14.252 14.252 0 012.124-.367 23.93 23.93 0 011.775-.068h.922v-.511c0-1.761-.905-2.643-2.716-2.647a6.006 6.006 0 00-2.012.36 7.079 7.079 0 00-1.582.73l-.548.38-1.333-2.56c.166-.125.409-.287.729-.486a11.424 11.424 0 011.981-.785 9.966 9.966 0 013.114-.486 6.234 6.234 0 014.5 1.489 5.811 5.811 0 011.539 4.36v5.805a.56.56 0 00.623.623h1.32v2.74h-3.457a1.981 1.981 0 01-1.408-.43 1.489 1.489 0 01-.461-1.133v-.168l.087-.741h-.056l-.156.3a4.7 4.7 0 01-.5.673 6.436 6.436 0 01-.884.866 4.362 4.362 0 01-1.308.679 5.121 5.121 0 01-1.794.305 5.182 5.182 0 01-3.413-1.165 4.036 4.036 0 01-1.43-3.31zm3.65-.28a1.938 1.938 0 00.579 1.433c.42.397.985.605 1.563.573a3 3 0 002.4-1.246c.64-.766.994-1.73 1-2.728v-.473h-.623a11.72 11.72 0 00-1.414.075c-.531.068-1.058.17-1.576.305a2.939 2.939 0 00-1.414.748 1.781 1.781 0 00-.523 1.314l.008-.001zm11.022-13.286V1.483h5.893v15.52c-.04.53.068 1.06.311 1.532a1.29 1.29 0 001.158.473l.679-.031v2.965c-.437.06-.879.088-1.32.087a4.927 4.927 0 01-3.258-1.022c-.81-.68-1.246-1.925-1.246-3.737V4.218h-2.217zm9.823 5.761V7.238h5.924V19.16h2.093v2.743h-7.879v-2.741h2.132V9.98l-2.27-.002zm2.242-5.313V1.483h3.681v3.183h-3.681zm7.094 9.904a7.643 7.643 0 012.074-5.544 7.132 7.132 0 015.369-2.137 6.048 6.048 0 014.8 1.968 7.306 7.306 0 011.725 4.983l-.081 1.246h-10.149a4.217 4.217 0 001.4 2.984 4.466 4.466 0 002.99 1.046 6.851 6.851 0 004.173-1.47l.081-.056 1.42 2.579a9.09 9.09 0 01-.729.585 9.34 9.34 0 01-2.018.928 9.182 9.182 0 01-3.177.567 7.611 7.611 0 01-5.712-2.236 7.518 7.518 0 01-2.166-5.443zm3.818-1.644h6.391a3.382 3.382 0 00-.835-2.317 2.647 2.647 0 00-2.018-.872 3.339 3.339 0 00-2.33.872 3.95 3.95 0 00-1.177 2.317h-.031zm11.985-2.947V7.238h3.818c1.3 0 1.956.59 1.968 1.769v.872l-.056.909h.056a5.742 5.742 0 011.769-2.7 4.36 4.36 0 012.878-1.06l.66.057v3.594a6.149 6.149 0 00-.884-.056 3.656 3.656 0 00-3.2 1.55 6.477 6.477 0 00-1.09 3.8v3.19h2.093v2.74h-7.873v-2.74h2.13V10.61a.555.555 0 00-.623-.623l-1.646-.01zM76.373 46.312a10.359 10.359 0 01-3.033-7.593 10.066 10.066 0 013.033-7.506 10.327 10.327 0 017.475-2.965c.777.006 1.552.074 2.317.206.87.147 1.73.355 2.572.623a5.37 5.37 0 012.205 1.277c.556.511.874 1.231.878 1.987v2.766h-3.428v-1.6a1.451 1.451 0 00-.779-1.246c-.52-.333-1.1-.56-1.707-.667a10.754 10.754 0 00-1.869-.168 6.584 6.584 0 00-4.915 1.95 7.045 7.045 0 00-1.912 5.17 7.7 7.7 0 001.981 5.53 6.646 6.646 0 005.039 2.094 11.578 11.578 0 001.725-.143 5.383 5.383 0 001.819-.623c.508-.215.852-.696.891-1.246v-1.613h3.451v2.8a2.591 2.591 0 01-.841 1.869 5.474 5.474 0 01-2.161 1.246 16.97 16.97 0 01-2.6.654c-.823.14-1.657.214-2.492.218a10.334 10.334 0 01-7.649-3.02zm20.237.878a7.717 7.717 0 010-11 7.948 7.948 0 015.7-2.185 8.2 8.2 0 015.774 2.186 7.593 7.593 0 010 11 8.154 8.154 0 01-5.762 2.18 8.029 8.029 0 01-5.712-2.18zm1.345-5.493a4.344 4.344 0 007.431 3.27 4.833 4.833 0 000-6.534 4.129 4.129 0 00-3.077-1.3 4.185 4.185 0 00-3.114 1.3 4.441 4.441 0 00-1.239 3.264h-.001zm12.851-10.365V28.59h5.9V44.1a2.82 2.82 0 00.33 1.557c.272.352.711.532 1.152.473l.685-.031v2.965a9.7 9.7 0 01-1.321.08 4.915 4.915 0 01-3.258-1.014c-.83-.677-1.246-1.923-1.246-3.737V31.332h-2.242zm8.184 0V28.59h5.9V44.1c-.043.53.065 1.06.311 1.532.273.354.716.535 1.159.473l.679-.031v2.965a9.692 9.692 0 01-1.32.08 4.914 4.914 0 01-3.258-1.014c-.83-.677-1.246-1.923-1.246-3.737V31.332h-2.225zm9.393 10.358a7.636 7.636 0 012.074-5.544 7.138 7.138 0 015.369-2.143 6.055 6.055 0 014.8 1.974 7.307 7.307 0 011.725 4.983l-.081 1.246h-10.149a4.217 4.217 0 001.4 2.984 4.49 4.49 0 003 1.046 6.852 6.852 0 004.167-1.47l.087-.056 1.414 2.579a9.289 9.289 0 01-.729.586 9.51 9.51 0 01-2 .9 9.1 9.1 0 01-3.183.573 7.593 7.593 0 01-5.706-2.236 7.475 7.475 0 01-2.188-5.422zm3.818-1.644h6.391a3.382 3.382 0 00-.835-2.317 2.629 2.629 0 00-2.012-.872 3.345 3.345 0 00-2.336.872 3.949 3.949 0 00-1.208 2.323v-.006zm13.985 6.54a8.048 8.048 0 01-1.741-5.288 7.9 7.9 0 011.719-5.214 5.836 5.836 0 014.759-2.087c.93-.004 1.85.189 2.7.567a3.662 3.662 0 011.869 1.676h.056a1.866 1.866 0 01-.056-.5 1.31 1.31 0 01.424-1c.353-.28.797-.417 1.246-.386h3.65v2.734h-1.414c-.417 0-.623.2-.623.586V48.15a7.258 7.258 0 01-.667 3.189 5.608 5.608 0 01-1.788 2.174c-.748.53-1.58.93-2.46 1.184-.922.26-1.876.39-2.834.386a11.081 11.081 0 01-5.226-1.246l1.115-2.716a8.446 8.446 0 004.055.972 4.758 4.758 0 003-.891 3.3 3.3 0 001.159-2.79v-.922l.056-.772h-.056a4.566 4.566 0 01-4.08 2.074 5.9 5.9 0 01-4.852-2.205l-.011-.002zm1.869-5.394a4.947 4.947 0 001 3.22 3.538 3.538 0 005.139.23 4.714 4.714 0 00.972-3.283c0-2.791-1.21-4.188-3.631-4.192a3.114 3.114 0 00-2.554 1.1 4.5 4.5 0 00-.9 2.92l-.026.005zm14.045.498a7.636 7.636 0 012.074-5.544 7.138 7.138 0 015.369-2.143 6.054 6.054 0 014.8 1.974 7.306 7.306 0 011.726 4.983l-.081 1.246h-10.15a4.216 4.216 0 001.4 2.984 4.478 4.478 0 002.99 1.046 6.852 6.852 0 004.173-1.47l.087-.056 1.414 2.579a9.289 9.289 0 01-.729.586 9.427 9.427 0 01-2.018.9 9.042 9.042 0 01-3.176.573 7.612 7.612 0 01-5.712-2.236 7.518 7.518 0 01-2.168-5.42l.001-.002zm3.818-1.644h6.391a3.383 3.383 0 00-.835-2.317 2.635 2.635 0 00-2.018-.872 3.339 3.339 0 00-2.33.872 3.95 3.95 0 00-1.208 2.323v-.006z"/></g></svg>