<?xml version="1.0" encoding="utf-8"?>
<!-- Generator: Adobe Illustrator 26.0.1, SVG Export Plug-In . SVG Version: 6.00 Build 0)  -->
<svg version="1.1" id="Layer_1" xmlns="http://www.w3.org/2000/svg" xmlns:xlink="http://www.w3.org/1999/xlink" x="0px" y="0px"
	 viewBox="0 0 360 112.5" style="enable-background:new 0 0 360 112.5;" xml:space="preserve">
<g id="SvgjsG1375" transform="matrix(1.1235953129808554,0,0,1.1235953129808554,-6.179790294554585,-6.179574914212188)">
	<path d="M22.5,93.1c1.2,1.1,2.4,2,3.5,2.8c8.6,6.3,18.9,9.7,29.5,9.6c1.6,0,3.3-0.1,4.9-0.2c6.8-0.6,13.3-2.7,19.3-6
		c18.8-10.4,28.9-31.5,25.1-52.6c-0.1-0.9-0.3-1.8-0.6-2.8c0,0,0,0,0-0.1c-0.2-1-0.5-1.9-0.8-2.8v0l0,0l0,0
		c-3.2-10.4-9.6-19.5-18.4-26l0,0c-8.6-6.3-18.9-9.7-29.6-9.7h-0.6c-5.8,0.1-11.5,1.1-16.8,3.1l0,0l0,0c-0.3,0.1-0.6,0.2-0.9,0.3
		c-0.5,0.2-1,0.4-1.5,0.7c0,0,0,0-0.1,0l-0.1,0C10.2,20.8-1.4,50.3,9.7,75.7C12.6,82.3,17,88.3,22.5,93.1L22.5,93.1z M100.3,44.8
		c0.2,1.1,0.9,1.9,1.9,2.4c-0.3,0.8-0.6,1.7-0.9,2.6c-1.8,4.7-4.2,9.1-7.2,13.1c-1.5-1-3.4-1-5-0.1c-4.1-5.3-9-10-14.3-14
		c-1.2-3.1-2.4-6.1-3.7-8.8c0,0,0-0.1,0-0.1c-1.3-2.8-2.8-5.5-4.2-8.1c1.1,1,2.2,2,3.3,2.9c0,0,0.1,0.1,0.1,0.1
		c8.4,6.6,18.8,10.1,29.4,10.1C100,44.8,100.2,44.8,100.3,44.8z M101.4,44.1c0-0.8,0.5-1.6,1.2-2c0.2,0.7,0.4,1.4,0.6,2.1
		c0,0,0,0,0,0.1c0.2,0.8,0.3,1.5,0.5,2.2c-1.2,0-2.2-1-2.2-2.2l0,0l0,0C101.4,44.2,101.4,44.1,101.4,44.1L101.4,44.1z M91.6,70.8
		c-2.1,0-3.8-1.7-3.8-3.8c0-2.1,1.7-3.8,3.8-3.8c2.1,0,3.8,1.7,3.8,3.8c0,0,0,0,0,0C95.4,69.1,93.7,70.8,91.6,70.8L91.6,70.8z
		 M79,98.5c-5.7,3.1-12,5.1-18.4,5.7c-3.4-2.3-6.4-5.1-9-8.2c1.3-1.2,2.1-2.9,2.1-4.7c0-0.3,0-0.6-0.1-0.9c9.8-2.6,19-6.9,27.2-12.8
		C81.5,86.1,80.9,93.3,79,98.5z M42.1,92.2c0-0.3-0.1-0.5-0.1-0.8c0-2.9,2.3-5.2,5.2-5.2c2.4,0,4.6,1.7,5.1,4.1l0,0l0,0
		c0.1,0.4,0.1,0.8,0.1,1.1c0,1.6-0.8,3.2-2.1,4.1c-2.3,1.7-5.6,1.3-7.3-1C42.6,93.8,42.3,93,42.1,92.2L42.1,92.2z M43.5,33.7
		c0.8-2.8,3.8-4.3,6.5-3.5c2.8,0.8,4.3,3.8,3.5,6.5c-0.7,2.2-2.7,3.7-5,3.7c-2.9,0-5.2-2.3-5.2-5.2c0,0,0,0,0,0
		C43.3,34.7,43.4,34.2,43.5,33.7L43.5,33.7z M61.5,29.3c0.8,0,1.6-0.2,2.3-0.6c2.4,3.7,4.5,7.5,6.4,11.5c0,0,0,0.1,0,0.1
		c1.1,2.2,2.1,4.6,3.1,7.1c-2.7-1.9-5.4-3.7-8.3-5.4c-3.3-1.9-6.8-3.6-10.3-5.1c0.6-2,0.1-4.1-1.2-5.7c1.5-1.3,2.9-2.5,4.4-3.6
		C58.8,28.7,60.1,29.3,61.5,29.3z M44.9,40.4c2.8,2,6.8,1.4,8.8-1.4c0.2-0.3,0.4-0.6,0.6-1c3.5,1.5,6.9,3.1,10.2,5
		c3.3,1.9,6.5,4.1,9.6,6.4c0.2,0.6,0.5,1.2,0.7,1.8c3,8.1,4.9,16.6,5.9,25.2c-8.2,6-17.5,10.4-27.3,13c-1.1-3.3-4.6-5.1-7.9-4.1
		c-0.4,0.1-0.7,0.3-1.1,0.5c-3.4-5.7-6.3-11.7-8.6-17.9c3.9-1.7,5.8-6.2,4.1-10.2c-0.7-1.6-1.9-3-3.5-3.8
		C38.7,49.1,41.6,44.6,44.9,40.4z M81.7,75.6c-1-8.4-3-16.7-5.9-24.7c0,0,0-0.1,0-0.1c4.7,3.7,8.9,8,12.6,12.7
		c-2,1.8-2.2,4.8-0.4,6.8C85.9,72.1,83.9,73.9,81.7,75.6z M61.5,28.2c-2.1,0-3.8-1.7-3.8-3.8c0-2.1,1.7-3.8,3.8-3.8
		c2.1,0,3.8,1.7,3.8,3.8c0,0,0,0,0,0C65.3,26.5,63.6,28.2,61.5,28.2z M61.5,19.5c-0.7,0-1.3,0.1-1.9,0.4c-1.3-2.6-2.4-5.4-3.1-8.2
		c-0.4-1.7-0.7-3.4-0.9-5.1c9.9,0,19.6,3,27.8,8.7c-6.3,1.1-12.3,3.2-17.9,6.2C64.5,20.2,63.1,19.5,61.5,19.5L61.5,19.5z M55.4,12
		c0.6,2.4,1.4,4.6,2.4,6.8c-0.5-0.6-1-1.1-1.5-1.6c-4.9-5.1-9.8-8.1-14.2-8.8c4-1.1,8.1-1.8,12.3-1.8C54.6,8.4,55,10.2,55.4,12
		L55.4,12z M36,10.7L36,10.7C36.1,10.7,36.1,10.7,36,10.7c0.8-0.3,1.5-0.6,2.3-0.9l0,0c0,0,0,0,0.1,0c4.8-1.1,10.9,1.8,17.1,8.3
		c0.8,0.9,1.7,1.8,2.6,2.9c-1.6,1.5-1.9,3.9-0.9,5.8c-1.5,1.1-3,2.4-4.6,3.7c-2.6-2.3-6.6-2-8.9,0.6c-0.5,0.6-0.9,1.2-1.1,1.9
		c-3.3-0.8-6.6-1.4-10-1.8c-0.1-2.3-1.8-4.2-4-4.6C29.5,18.6,32.1,13,36,10.7L36,10.7z M27.8,27.5L27.8,27.5c0.1,0,0.1,0,0.2,0l0,0
		l0,0l0,0c2,0.1,3.6,1.8,3.6,3.8c0,0.1,0,0.1,0,0.2l0,0l0,0l0,0c-0.1,2.1-1.9,3.7-4,3.5c-2-0.1-3.5-1.7-3.5-3.7v-0.1
		C24.1,29.2,25.7,27.5,27.8,27.5z M32.6,32.2c3.3,0.3,6.5,0.9,9.7,1.7c-0.4,2.1,0.2,4.2,1.7,5.7c-3.4,4.3-6.3,8.9-8.7,13.8
		c-1.3-0.5-2.8-0.6-4.2-0.3c-1.4-5.6-2.2-11.2-2.6-17C30.6,35.9,32.2,34.3,32.6,32.2z M30.8,54.3c0.6-0.2,1.2-0.3,1.8-0.3
		c0.9,0,1.8,0.2,2.7,0.6c3.4,1.5,4.9,5.4,3.4,8.8c-1.5,3.4-5.4,4.9-8.8,3.4s-4.9-5.4-3.4-8.8C27.3,56.2,28.9,54.8,30.8,54.3
		L30.8,54.3z M30.6,68.2c0.6,0.2,1.3,0.3,2,0.3c0.7,0,1.3-0.1,2-0.3c2.4,6.3,5.3,12.4,8.7,18.1c-1.5,1.2-2.4,3-2.4,5
		c0,0.1,0,0.3,0,0.4c-4.7,0.6-9.3,0.8-14,0.6C27.1,84.2,28.3,76.1,30.6,68.2z M25.8,94.4c-0.4-0.3-0.8-0.6-1.3-1
		c0.4,0,0.8,0.1,1.3,0.1C25.8,93.8,25.8,94.1,25.8,94.4z M26.9,95.2c0-0.3,0-0.5,0-0.8c0-0.3,0-0.6,0-0.9c0.9,0,1.9,0,2.9,0
		c3.8,0,7.6-0.2,11.4-0.7c0.8,3.4,4.2,5.5,7.5,4.7c0.7-0.2,1.4-0.5,2-0.8c2.4,2.9,5.1,5.5,8.1,7.7c-1,0.1-2.1,0.1-3.2,0.1
		C45.3,104.5,35.2,101.3,26.9,95.2L26.9,95.2z M80.4,97.7c1.7-5.4,2.2-12.6,1.4-20.8c2.4-1.8,4.7-3.8,6.9-6c1.4,1.1,3.3,1.3,4.9,0.5
		c1.7,3,2.9,6.1,3.8,9.4C93.3,87.8,87.4,93.5,80.4,97.7z M98.2,79.5c-0.9-3-2.1-5.9-3.6-8.6c2.1-1.6,2.5-4.7,0.9-6.8
		c-0.1-0.2-0.3-0.3-0.4-0.5c3-4.1,5.5-8.6,7.3-13.4c0.4-0.9,0.7-1.8,0.9-2.7c0.1,0,0.2,0,0.4,0c0,0,0.1,0,0.1,0
		c0.4,2.7,0.7,5.3,0.7,8C104.5,63.9,102.3,72.2,98.2,79.5z M102.3,41c-1.1,0.5-1.8,1.5-2,2.7c-0.2,0-0.3,0-0.5,0
		c-10.4,0-20.5-3.4-28.6-9.8c0,0-0.1-0.1-0.1-0.1c-2.2-1.8-4.3-3.7-6.1-5.9c1.5-1.4,1.9-3.6,1.1-5.5c5.8-3.1,12.1-5.2,18.6-6.2
		C93,22.4,99.1,31,102.3,41L102.3,41z M32.2,12.5c-2.5,3.1-4.1,7.8-4.7,13.9c-2.4,0.1-4.4,2-4.6,4.5c-3.7,0.2-7.4,0.9-10.9,2.2
		C16.6,24.4,23.6,17.2,32.2,12.5z M11.4,34.5C15.1,33.1,19,32.2,23,32c0.3,2.2,2.2,3.9,4.4,4.1c0.4,5.8,1.2,11.6,2.6,17.3
		c-4,1.4-6.2,5.8-4.8,9.9c0.7,2.1,2.3,3.7,4.3,4.6c-2.3,7.9-3.6,16.2-3.8,24.5c-0.9,0-1.8-0.1-2.7-0.2C6.8,77.7,2,54.2,11.4,34.5
		L11.4,34.5z"/>
	<path d="M32.6,65.7c2.7,0,4.9-2.2,4.9-4.9c0-2.7-2.2-4.9-4.9-4.9c-2.7,0-4.9,2.2-4.9,4.9c0,0,0,0,0,0
		C27.7,63.5,29.9,65.7,32.6,65.7z M32.6,57.1c2.1,0,3.8,1.7,3.8,3.8c0,2.1-1.7,3.8-3.8,3.8s-3.8-1.7-3.8-3.8c0,0,0,0,0,0
		C28.8,58.8,30.5,57.1,32.6,57.1z"/>
</g>
<g id="SvgjsG1376" transform="matrix(0.6086174495347888,0,0,0.6086174495347888,119.52458117385085,35.173737733576075)">
	<path d="M40.4,16.8l7.1,0l0.1,14.2v7.2c0,3.9-1.4,7.3-4.2,10c-2.7,2.7-6,4.1-9.9,4.2h-0.1h-0.1c-3,0-5.6-0.9-7.9-2.5l3.6-6.2
		c1,0.9,2.2,1.4,3.5,1.5c0.3,0,0.6,0.1,0.9,0.1h0.1h0.1c0.3,0,0.5,0,0.9-0.1c1.5-0.2,2.9-0.9,4.1-2c1.4-1.4,2.1-3.1,2.1-5v-0.7v-6.4
		L40.4,16.8z M68.2,16.6c4.9,0,9.1,1.8,12.7,5.3s5.3,7.7,5.3,12.7s-1.8,9.1-5.3,12.6c-3.5,3.5-7.7,5.3-12.7,5.3s-9.1-1.8-12.6-5.3
		c-3.5-3.5-5.3-7.7-5.3-12.6s1.8-9.1,5.3-12.7C59,18.4,63.3,16.6,68.2,16.6z M68.2,23.8c-3,0-5.5,1.1-7.6,3.2
		c-2.1,2.1-3.1,4.6-3.1,7.6c0,3,1.1,5.5,3.1,7.6c2.1,2.1,4.6,3.1,7.6,3.1c2.9,0,5.5-1.1,7.6-3.1c2.1-2.1,3.2-4.6,3.2-7.6
		c0-2.9-1.1-5.5-3.2-7.6C73.7,24.8,71.1,23.8,68.2,23.8z M99.2,45.2L99.2,45.2c1.9,0,3.6-1.7,3.6-3.6c0-1.5-0.6-2.5-1.8-2.9
		c-2.5-0.9-1.9-0.7-4.4-1.6c-2.6-0.9-5-2.7-6.7-4.9c-1-1.3-1.5-2.9-1.5-4.9c0-2.9,1.1-5.5,3.2-7.6c2.1-2.1,4.6-3.2,7.6-3.2
		c2.9,0,5.5,1.1,7.6,3.2s3.2,4.6,3.2,7.6h-7.1c0-1.9-1.6-3.6-3.6-3.6c-2,0-3.6,1.6-3.6,3.6c0,1.3,0.5,2.2,1.5,2.9
		c2.1,1.4,1.9,1.1,4.4,1.8c2.7,0.8,5.2,2.5,6.9,4.7c1,1.3,1.5,2.9,1.5,4.9c0,3-1.1,5.5-3.2,7.6c-2.1,2.1-4.6,3.2-7.6,3.2
		c-3,0-5.5-1.1-7.6-3.2c-2.1-2.1-3.2-4.6-3.2-7.6h7.2C95.7,43.6,97.3,45.2,99.2,45.2L99.2,45.2z M113.3,16.8h7.1V31H131V16.8h7.1
		v35.4H131V38.1h-10.6v14.2h-7.1C113.3,52.2,113.3,16.8,113.3,16.8z M162.9,16.8h7.1V31v7.1c0,3.9-1.4,7.3-4.2,10.1
		s-6.2,4.2-10.1,4.2c-3.9,0-7.3-1.4-10.1-4.2s-4.2-6.2-4.2-10.1V31V16.8h7.1V31v6.4v0.7c0,2,0.7,3.6,2.1,5s3.1,2.1,5,2.1
		c1.9,0,3.6-0.7,5-2.1c1.4-1.4,2.1-3.1,2.1-5v-0.7V31L162.9,16.8L162.9,16.8z M182.8,40.5h6.3l-3.1-7.4L182.8,40.5z M179.9,46.8
		l-0.1,0.3l-2.3,5.1h-1.2H176h-4.6h-1.5l16.1-36l16.1,36h-1.5h-4.6h-0.3h-1.2L192,47l-0.1-0.2L179.9,46.8L179.9,46.8z M228.4,45.2
		L228.4,45.2c1.9,0,3.6-1.7,3.6-3.6c0-1.5-0.6-2.5-1.8-2.9c-2.5-0.9-1.9-0.7-4.4-1.6c-2.6-0.9-5-2.7-6.7-4.9c-1-1.3-1.5-2.9-1.5-4.9
		c0-2.9,1.1-5.5,3.2-7.6s4.6-3.2,7.6-3.2c2.9,0,5.5,1.1,7.6,3.2s3.2,4.6,3.2,7.6H232c0-1.9-1.6-3.6-3.6-3.6c-2,0-3.6,1.6-3.6,3.6
		c0,1.3,0.5,2.2,1.5,2.9c2.1,1.4,1.9,1.1,4.4,1.8c2.7,0.8,5.2,2.5,6.9,4.7c1,1.3,1.5,2.9,1.5,4.9c0,3-1.1,5.5-3.2,7.6
		c-2.1,2.1-4.6,3.2-7.6,3.2c-3,0-5.5-1.1-7.6-3.2c-2.1-2.1-3.2-4.6-3.2-7.6h7.2C224.8,43.6,226.4,45.2,228.4,45.2L228.4,45.2z
		 M263.7,16.8h7.1V31v7.1c0,3.9-1.4,7.3-4.2,10.1c-2.8,2.8-6.2,4.2-10.1,4.2c-3.9,0-7.3-1.4-10.1-4.2c-2.8-2.8-4.2-6.2-4.2-10.1V31
		V16.8h7.1V31v6.4v0.7c0,2,0.7,3.6,2.1,5c1.4,1.4,3.1,2.1,5,2.1c1.9,0,3.6-0.7,5-2.1c1.4-1.4,2.1-3.1,2.1-5v-0.7V31L263.7,16.8
		L263.7,16.8z M282.8,16.8h7.1h8.9v7.1h-8.9v28.3h-7.1V23.9h-8.9v-7.1C273.9,16.8,282.8,16.8,282.8,16.8z M310.2,16.8h7.1h8.9v7.1
		h-8.9v28.3h-7.1V23.9h-8.9v-7.1C301.4,16.8,310.2,16.8,310.2,16.8z M346.3,16.6c4.9,0,9.1,1.8,12.7,5.3s5.3,7.7,5.3,12.7
		s-1.8,9.1-5.3,12.6c-3.5,3.5-7.7,5.3-12.7,5.3c-4.9,0-9.1-1.8-12.6-5.3c-3.5-3.5-5.3-7.7-5.3-12.6s1.8-9.1,5.3-12.7
		S341.3,16.6,346.3,16.6z M346.3,23.8c-3,0-5.5,1.1-7.6,3.2c-2.1,2.1-3.1,4.6-3.1,7.6c0,3,1.1,5.5,3.1,7.6c2.1,2.1,4.6,3.1,7.6,3.1
		c2.9,0,5.5-1.1,7.6-3.1c2.1-2.1,3.2-4.6,3.2-7.6c0-2.9-1.1-5.5-3.2-7.6S349.2,23.8,346.3,23.8z M366.8,16.1L388,36.4V16.8h7.1v36.1
		l-21.2-20.3v19.6h-7.1C366.8,52.2,366.8,16.1,366.8,16.1z"/>
</g>
</svg>
